<svg xmlns="http://www.w3.org/2000/svg" viewBox="0 0 32 32" role="img" aria-label="The Dale Ledger">
  <rect width="32" height="32" rx="5" fill="#f4f2ed"/>
  <circle cx="16" cy="16" r="13.5" fill="none" stroke="#1a1a1f" stroke-width="1.4"/>
  <circle cx="16" cy="16" r="10.5" fill="none" stroke="#1a1a1f" stroke-width=".6" opacity=".45"/>
  <path d="M5.5 20.5Q10.5 12.5 16 17.5Q21.5 12.5 26.5 20.5" fill="none" stroke="#1a1a1f" stroke-width="1.8" stroke-linecap="round"/>
  <circle cx="16" cy="10.5" r="2.8" fill="none" stroke="#A51C30" stroke-width="1.3"/>
  <line x1="16" y1="5.5" x2="16" y2="7.2" stroke="#A51C30" stroke-width="1.1" stroke-linecap="round"/>
  <line x1="16" y1="13.8" x2="16" y2="15.5" stroke="#A51C30" stroke-width="1.1" stroke-linecap="round"/>
  <line x1="10.5" y1="10.5" x2="11.9" y2="11.9" stroke="#A51C30" stroke-width="1.1" stroke-linecap="round"/>
  <line x1="21.5" y1="10.5" x2="20.1" y2="11.9" stroke="#A51C30" stroke-width="1.1" stroke-linecap="round"/>
  <path d="M16 23.2C14.2 21.2 11.5 21.6 11.5 23.8C11.5 25.5 14 26.5 16 28.2C18 26.5 20.5 25.5 20.5 23.8C20.5 21.6 17.8 21.2 16 23.2Z" fill="#A51C30"/>
</svg>
